<?xml version="1.0" encoding="UTF-8"?>
<svg width="752pt" height="752pt" version="1.1" viewBox="0 0 752 752" xmlns="http://www.w3.org/2000/svg" fill="#FFFFFF">
 <path d="m296.44 330.54c0.47266-1.8945 2.3672-2.8398 2.8398-4.7344 0.47266-2.8398 0.94531-5.2109 2.3672-7.5781l0.47266-0.47266c0.47266-1.4219 0.94531-2.8398 1.4219-4.2617 0 0 0.47266 0 0.47266-0.47266 0-0.94531 0.47266-0.94531 0.47266-1.4219 0-0.47266 0-1.4219 0.47266-1.8945l0.94531-0.47266c0.47266-0.47266 0.47266-1.4219 0.94531-1.8945 0.94531-0.47266 1.8945-0.94531 2.3672-1.4219 3.3164-3.3164 6.6289-7.5781 9.9453-10.418 0.94531-0.47266 1.4219-1.4219 1.8945-1.8945 0.47266-0.47266 0.47266-0.94531 0.94531-0.94531h0.94531v-0.47266c0.47266-0.47266 0.94531 0 1.4219-0.47266 0 0 0.47266-0.94531 0.47266-0.94531 0.47266-0.47266 0.94531-0.47266 1.4219-0.47266 0.47266 0 0-0.47266 0.47266-0.47266l1.4219-0.47266 0.47266-0.94531c0.94531-0.47266 1.4219-0.47266 2.3672-0.94531l1.4219-1.4219c0.47266-0.47266 0.47266-0.94531 0.94531-0.94531h0.94531c0.47266-0.47266 0.47266-0.94531 0.94531-0.94531h0.94531v-0.47266c0.47266 0 1.8945-0.47266 2.8398-0.47266 1.8945-0.47266 5.2109-0.94531 7.5781-1.4219 5.6836-0.94531 9.4727-1.8945 16.102-1.4219 0 0 0 0.47266 0.47266 0.47266h1.8945c0.94531 0 0.94531-0.47266 1.8945-0.47266 0.94531 0 1.4219 0.47266 2.3672 0.47266 0.94531 0 0.94531-0.47266 1.8945-0.47266h5.2109c2.8398 0 6.1562 0.94531 8.9961 0.94531 3.7891 0.47266 7.1055 0 9.4727 0.47266 0 0 0 0.47266 0.47266 0.47266h1.4219c0.47266 0 0.94531 0.47266 1.4219 0.47266 0.47266 0 1.8945 0.94531 2.8398 1.4219 0.94531 0.47266 1.8945 0.47266 2.8398 0.94531 0.47266 0 0.94531 0.94531 0.94531 0.94531h0.94531c0.47266 0.47266 0.47266 0.47266 0.94531 0.47266 0.47266 0 0.94531 0.47266 1.4219 0.47266 0.47266 0 0.94531 0.47266 1.8945 0.94531h0.94531c0.94531 0.94531 2.8398 1.4219 4.7344 1.8945 0 0 0 0.47266 0.47266 0.47266 0.47266 0 0.94531 0.94531 1.4219 0.94531 0.47266 0 0.47266 0.47266 0.94531 0.47266 0.47266 0.47266 0.94531 0.94531 1.4219 1.4219 0.47266 0.47266 0.94531 0 1.4219 0.47266 0.47266 0 0.47266 0.94531 0.47266 0.94531 0.47266 0.47266 1.4219 0.47266 1.8945 0.94531l0.94531 0.94531c1.8945 1.4219 5.2109 4.7344 7.1055 7.1055l1.4219 1.4219c0.47266 0.47266 0.47266 1.4219 0.94531 1.8945l1.4219 1.4219c3.3164 4.2617 5.2109 7.1055 7.1055 12.312 0.47266 1.4219 0.94531 2.8398 1.4219 4.7344 0.47266 0.47266 0.94531 1.4219 0.94531 1.8945 0.47266 1.4219 0.94531 3.3164 1.4219 4.7344v1.4219c0 0.47266 0.47266 0.47266 0.47266 0.94531 0.47266 2.8398-0.47266 6.1562-0.47266 9.4727-0.47266 4.2617-0.47266 7.5781-0.94531 11.367v0.94531c-0.47266 0.47266-0.47266 1.4219-0.94531 2.8398-0.47266 0.94531-0.94531 1.8945-0.94531 2.3672-0.47266 0.94531 0 1.8945-0.47266 2.8398 0 0-0.47266 0-0.47266 0.47266-0.47266 1.4219-0.47266 2.3672-0.94531 3.3164v0.94531c-0.94531 0.94531-1.4219 3.7891-1.8945 5.2109 0 0.47266-0.94531 0.47266-0.94531 0.94531-0.47266 0.94531-0.94531 1.4219-1.4219 2.3672-0.47266 0.94531-0.94531 1.4219-1.4219 2.3672-0.47266 0.94531-0.94531 1.4219-1.4219 2.3672 0 0.47266-0.47266 0-0.47266 0.47266 0 1.4219-2.8398 2.8398-4.2617 4.2617-0.47266 0.47266-0.47266 0.94531-0.47266 1.4219 0 0.47266-0.94531 0.47266-0.94531 0.94531-0.94531 0.94531-1.4219 1.8945-2.3672 2.3672-0.47266 0-0.47266 0.47266-0.47266 0.47266-0.47266 0.47266-1.4219 0.94531-1.8945 0.94531l-0.94531 0.47266c-0.47266 0-0.94531 0.47266-1.4219 0.47266-0.47266 0.47266-0.47266 1.4219-0.94531 1.4219-0.47266 0.47266-0.94531 0-1.4219 0.47266-0.47266 0 0 0.47266-0.47266 0.47266l-0.94531 0.47266c-0.47266 0.47266-0.47266 0.94531-0.94531 0.94531-0.47266 0.47266-1.4219 0-1.8945 0.47266-0.47266 0-0.47266 0.94531-0.94531 0.94531-0.47266 0.47266-0.94531 0.47266-1.4219 0.94531-0.47266 0-0.94531 0.94531-0.94531 0.94531-0.47266 0.47266-1.4219 0-1.8945 0.47266-0.47266 0-0.94531 0.94531-0.94531 0.94531h-0.94531c-0.47266 0-0.94531 0.47266-1.4219 0.47266-0.47266 0-0.47266 0.47266-0.47266 0.47266-2.8398 0.47266-6.1562 0.47266-9.4727 0.94531-4.2617 0.47266-7.5781 1.8945-11.84 0.94531 0 0 0-0.47266-0.47266-0.47266h-0.47266s-0.47266-0.47266-0.47266-0.47266c-2.3672-0.47266-5.2109-0.94531-7.5781-1.4219-0.47266 0-1.8945-0.94531-2.3672-0.94531h-0.94531c-0.47266 0-0.94531-0.94531-0.94531-0.94531-0.47266-0.47266-0.94531 0-1.4219-0.47266-0.47266 0-0.47266-0.94531-0.94531-0.94531-0.47266-0.47266-0.94531 0-1.4219-0.47266-0.47266-0.47266-1.4219-1.4219-1.8945-1.8945-0.47266-0.47266-0.94531-0.47266-1.4219-0.47266-0.47266 0 0-0.47266-0.47266-0.47266h-0.47266c-0.47266-0.47266-1.4219-1.4219-1.8945-1.8945-0.47266-0.47266-0.47266-0.94531-0.94531-0.94531-0.47266-0.47266-0.94531 0-1.4219-0.47266-0.47266-0.47266-1.4219-1.4219-1.8945-1.8945-1.4219-1.4219-1.8945-1.4219-2.8398-3.3164 0-0.47266-0.47266 0-0.47266-0.47266 0-0.94531-0.94531-0.94531-0.94531-1.8945 0-0.94531-0.94531-1.4219-1.4219-1.8945-1.4219-1.8945-3.3164-6.1562-4.2617-8.5234-0.94531-3.7891-1.4219-8.0508-0.94531-11.84 0.47266-2.3672 1.8945-4.7344 3.3164-7.5781 0.47266-0.94531 0.94531-1.8945 1.4219-2.8398 0.47266-0.47266 0.47266-0.94531 0.94531-1.4219 0.47266-0.47266 0.47266-0.94531 0.94531-1.4219l0.47266-1.4219c0.94531-0.94531 1.8945-2.3672 2.8398-4.2617l0.94531-0.47266v-0.94531c0.94531-0.94531 1.8945-1.4219 2.8398-2.3672 0.47266-0.47266 0.94531-1.4219 1.8945-1.8945l1.4219-0.47266v-0.47266h0.94531s1.4219-1.4219 2.3672-1.4219c0.47266 0 1.8945-0.47266 2.8398-0.94531 3.3164-0.94531 6.1562-1.4219 8.9961-0.94531 1.4219 0 2.8398 0.47266 4.2617 0.94531 0.47266 0 0 0.47266 0.47266 0.47266 0.94531 0 1.4219 1.4219 1.8945 1.8945s1.4219 0.47266 1.4219 0.94531c0.47266 0.47266 0.47266 1.4219 0.47266 1.8945 0 0 0.47266 0 0.47266 0.47266 0 0-0.47266 3.3164 0 3.3164 1.4219 1.4219-0.94531 4.7344-1.8945 6.1562-1.4219 1.4219-3.3164 2.3672-4.7344 4.2617-1.4219 1.4219-2.3672 3.3164-3.3164 5.2109 0 0.47266-0.47266 0-0.47266 0.47266 0 0-0.47266 0.94531-0.47266 0.94531-0.47266 0.47266-0.94531 0.94531-0.94531 1.8945-0.47266 2.8398-0.94531 6.1562 0.94531 8.9961l0.47266 1.4219h0.47266v0.94531h0.47266v0.94531c0.94531 0.94531 1.4219 1.8945 2.8398 2.8398 0.47266 0 0.47266 0.47266 0.94531 0.47266 0.94531 0.47266 2.3672 2.3672 4.2617 2.3672 1.8945 0.47266 3.7891 0 5.6836-0.47266h0.94531c3.7891-0.94531 8.0508-1.8945 11.367-4.7344 0.47266-0.47266 0.94531-1.4219 1.4219-1.8945 0.47266-0.47266 0.94531-0.94531 1.4219-1.4219 0.94531-1.4219 1.8945-2.8398 2.3672-4.2617 0.47266-0.47266 1.4219-0.94531 1.4219-1.4219v-0.94531h0.47266v-0.94531c1.4219-0.94531 1.8945-5.2109 2.8398-8.5234 0.94531-2.8398 1.8945-5.6836 2.3672-8.0508 0.47266-2.3672 0.47266-4.7344 0.47266-7.1055 0-2.3672 0.47266-4.7344 0-6.6289-0.47266-1.8945-2.3672-5.2109-4.2617-7.5781-0.47266-0.47266-0.94531-0.47266-0.94531-0.94531v-0.94531l-0.94531-0.47266c3.3203 0.023438 3.3203-0.44922 3.3203-0.92578l-0.94531-0.47266c-0.47266-0.47266-0.47266-1.4219-0.94531-1.8945-1.4219-1.4219-3.3164-2.8398-4.7344-4.7344-0.47266-0.94531-1.4219-1.4219-1.8945-1.8945-1.4219-0.94531-4.7344-2.3672-7.1055-3.3164-1.4219-0.47266-2.8398-0.94531-4.2617-1.4219 0 0 0-0.47266-0.47266-0.47266-0.94531 0-1.4219 0-2.3672-0.47266-3.3164-1.4219-11.367-1.8945-17.051-1.8945-7.5781 0-16.102-0.94531-20.836 1.8945-0.47266 0 0 0.47266-0.47266 0.47266-0.94531 0-1.8945 0.94531-2.3672 1.4219-2.3672 1.8945-5.6836 4.7344-8.0508 7.5781-0.94531 1.4219-3.3164 1.8945-4.7344 3.3164-0.47266 0.47266 0 1.4219-0.47266 1.8945 0 0.47266-0.94531 0.94531-0.94531 0.94531-0.47266 0.47266 0 0.94531-0.47266 1.4219 0 0.47266-0.94531 0.94531-0.94531 0.94531-0.47266 0.47266 0 0.94531-0.47266 1.4219 0 0.47266-0.94531 0.94531-0.94531 0.94531-0.47266 0.47266 0 0.94531-0.47266 1.4219 0 0.47266-0.94531 0.94531-0.94531 0.94531 0 0.47266 0 2.3672-0.47266 2.3672h-0.47266c-0.47266 1.4219-0.94531 3.3164-1.4219 5.2109v0.94531h-0.47266v0.94531c-0.47266 0.47266-0.47266 0.47266-0.47266 0.94531l-0.47266 1.4219h-0.47266c-0.47266 0.94531-0.47266 1.8945-0.47266 2.3672s-0.94531 0.94531-0.94531 0.94531v1.4219s-0.47266 0-0.47266 0.47266v1.4219c-0.47266 0-0.47266 0.94531-0.94531 2.3672-0.47266 2.3672-0.47266 6.6289-0.94531 9.9453 0 0.94531-0.94531 1.8945-0.94531 2.8398-0.47266 2.3672-0.47266 4.2617 0 7.5781 0 1.4219 0.47266 2.3672 0.47266 3.3164 0 0 0.47266 0 0.47266 0.47266 0 1.8945 0.94531 4.2617 1.4219 6.1562 0.94531 2.8398 2.3672 5.6836 4.2617 8.0508 0.47266 0.47266 0.94531 0.47266 0.94531 0.94531v0.94531h0.47266c0.47266 0.94531 0.47266 2.3672 0.94531 2.8398 0 0.47266 0.94531 0.94531 0.94531 0.94531 0.47266 0.47266 0.47266 0.94531 0.47266 1.4219 0.94531 1.8945 1.4219 3.7891 2.3672 5.2109 1.4219 2.3672 3.3164 4.7344 5.6836 7.1055 0.47266 0.47266 1.4219 0.94531 1.8945 1.4219 0.47266 0.47266 0.47266 1.4219 0.94531 1.8945v0.94531h0.47266v0.94531c0.47266 0 0.94531 1.4219 1.4219 1.8945h0.94531s0.47266 0.94531 0.47266 0.94531h0.94531s0.47266 0.94531 0.47266 0.94531h0.94531l0.47266 0.94531c0.47266 0.47266 0.94531 0 1.4219 0.47266 0 0 0.47266 0.94531 0.47266 0.94531h0.94531c0.47266 0 0.94531 0.94531 0.94531 0.94531 0.47266 0 0.47266 0.47266 0.94531 0.47266 0.47266 0.47266 0.94531 0.47266 1.4219 0.47266 0.47266 0 0.47266 0.47266 0.47266 0.47266 3.7891 1.8945 9.4727 2.3672 13.734 4.2617 1.4219 0.47266 2.8398 1.4219 4.2617 1.4219 1.8945 0.47266 4.2617 0 6.6289 0.47266 0.47266 0 0.94531 0.47266 1.4219 0.47266 7.1055 0.94531 18.469 0.47266 26.992-0.47266 2.8398-0.47266 5.2109-0.47266 8.0508-0.94531h1.4219c0.94531-0.47266 3.7891-0.94531 6.1562-0.94531 1.8945 0 3.7891 0 5.2109-0.47266 2.8398-0.94531 5.2109-2.3672 7.5781-4.2617 2.3672-1.4219 4.7344-3.3164 8.5234-2.8398 2.3672-1.4219 0.94531-0.47266 1.8945-0.94531l1.4219-1.4219h0.94531c0.94531-0.94531 2.8398-2.8398 4.2617-4.2617v-0.94531c0.94531-0.47266 1.4219-1.4219 2.3672-2.3672s1.8945-2.3672 2.3672-3.3164c0.47266-0.47266 0.94531-0.94531 1.4219-1.4219 0.47266-0.47266 0.47266-1.4219 0.94531-1.8945 0.47266-0.47266 0.94531-0.94531 1.4219-1.4219 0.47266-0.47266 0.47266-1.4219 0.94531-1.8945 0.47266-0.47266 1.4219-0.94531 1.4219-1.4219v-0.94531h0.47266v-0.94531h0.47266c0.47266-0.94531 1.4219-2.3672 1.8945-3.3164 0-0.47266 0.47266 0 0.47266-0.47266 0-0.94531 0.94531-1.4219 1.4219-1.8945v-0.94531h0.47266v-0.94531c0.94531-0.94531 1.4219-1.4219 1.8945-2.8398 1.4219-2.8398 2.8398-5.2109 4.2617-8.0508 0.47266-1.4219 0.94531-3.3164 1.4219-4.7344 0 0 0.47266 0 0.47266-0.47266s0.47266-1.8945 0.94531-2.3672v-0.94531c1.4219-1.4219 1.4219-6.6289 2.3672-9.4727 0 0 0.47266 0 0.47266-0.47266 0-0.94531 0.47266-1.8945 0.94531-2.8398l0.47266-1.4219c0.47266-0.47266 0.47266-0.47266 0.47266-0.94531 0.47266-0.94531 1.4219-2.8398 1.8945-4.7344 0.47266-2.3672 0.47266-4.7344 0.94531-7.1055 0.47266-2.3672 0.47266-6.1562 0-8.9961-0.47266-1.4219 0.47266-1.8945 0.47266-4.2617 0-0.47266-0.47266-0.94531-0.47266-2.3672 0-2.3672 0-5.6836-0.47266-8.0508-0.47266-1.4219-1.4219-3.7891-1.8945-5.6836-0.47266-0.94531-0.47266-1.8945-0.94531-2.3672-0.47266-0.94531-0.47266-1.8945-0.94531-2.3672 0-0.47266-0.94531-0.94531-0.94531-0.94531-0.47266-0.47266-0.47266-0.94531-0.47266-1.4219-0.94531-1.8945-1.8945-5.2109-2.8398-7.5781 0-0.47266-0.47266-1.4219-0.47266-1.4219l-0.94531-0.47266v-0.94531h-0.47266v-0.94531h-0.47266c0-0.47266 0-0.94531-0.47266-1.4219l-0.94531-0.47266v-0.94531h-0.47266v-0.94531c-0.94531-0.47266-2.3672-2.8398-2.8398-4.2617-0.47266-0.47266 0-0.94531-0.47266-1.4219 0-0.47266-0.94531-0.47266-0.94531-0.47266-0.94531-1.4219-1.4219-2.3672-2.3672-3.3164-0.47266-0.47266-0.94531-0.94531-1.4219-1.4219-0.94531-0.94531-2.3672-2.3672-2.8398-2.8398-1.4219-0.94531-3.3164-1.8945-5.2109-2.8398-0.47266 0-0.47266-0.94531-0.94531-0.94531-1.4219-0.94531-4.2617-2.3672-6.1562-3.3164-0.47266-0.47266-0.47266-0.94531-0.94531-0.94531h-0.94531c-0.47266-0.47266-0.47266-1.4219-0.94531-1.4219-0.47266-0.47266-0.94531 0-1.4219-0.47266-0.47266 0-0.94531-0.94531-0.94531-0.94531h-0.94531c-0.47266-0.94531-3.3164-1.4219-5.2109-1.8945-0.94531-0.47266-2.3672 0-2.8398-0.47266 0 0 0-0.47266-0.47266-0.47266-1.4219 0-2.3672-0.94531-4.2617-1.4219-1.8945-0.47266-3.7891-1.4219-5.6836-1.8945h-0.94531v-0.47266c-2.8398-0.94531-6.6289-1.8945-9.9453-2.3672-1.8945-0.47266-3.7891-0.47266-5.6836-0.94531 0 0 0-0.47266-0.47266-0.47266-0.94531 0-2.3672-0.47266-4.2617-0.94531-1.8945-0.47266-3.7891-0.47266-5.6836-0.94531-3.3164-0.47266-7.1055-0.94531-11.84-1.4219 0 0 0-0.47266-0.47266-0.47266h-1.8945c-3.7891-0.47266-8.9961-1.4219-13.734-1.8945-7.1055-0.94531-13.262-0.94531-18.941 0.94531h-0.94531c-0.47266 0.47266-0.94531 0.94531-1.4219 0.94531h-0.94531v0.47266c-1.4219 0.47266-2.3672 0.47266-4.2617 0.94531 0 0 0 0.47266-0.47266 0.47266-0.94531 0-1.8945 0.47266-2.8398 0.94531-1.4219 0.47266-3.3164 0.94531-5.2109 1.4219-5.2109 1.8945-10.418 3.3164-15.156 5.6836-0.94531 0.47266-1.8945 1.4219-2.8398 1.4219-0.94531 0-0.94531 0.94531-1.8945 0.94531l-0.94531 0.47266c-0.47266 0.47266-0.47266 0.94531-0.94531 0.94531h-0.94531c-0.47266 0.47266-0.94531 0.94531-1.8945 1.4219-0.47266 0 0 0.47266-0.47266 0.47266l-0.94531 0.47266c-0.47266 0-0.47266 0.94531-0.94531 0.94531-0.94531 0.47266-1.8945 0.94531-2.3672 1.4219-0.94531 0.47266-1.4219 1.4219-2.3672 1.8945l-1.8945 1.8945c-1.4219 1.4219-3.7891 2.3672-5.2109 3.3164-0.47266 0.47266-0.94531 1.4219-1.4219 1.8945-0.94531 0.94531-2.3672 1.8945-3.3164 3.3164-1.4219 1.4219-2.8398 3.3164-4.7344 5.2109-0.47266 0.47266-0.94531 1.4219-1.4219 1.8945-0.47266 0.47266-0.94531 0.94531-1.4219 1.4219-0.47266 0.47266 0 0.94531-0.47266 1.4219 0 0.47266-0.94531 0.47266-0.94531 0.47266-0.47266 0.47266 0 0.94531-0.47266 1.4219l-0.94531 0.47266c-0.47266 0.47266 0 0.94531-0.47266 1.4219-0.47266 0.47266-1.8945 0.94531-2.3672 1.8945-0.47266 0.47266 0 0.94531-0.47266 1.4219l-0.94531 0.47266c-0.47266 0.47266-0.47266 1.4219-0.94531 1.8945s-1.4219 0.47266-1.4219 1.4219c0 0.47266-0.94531 0.47266-0.94531 0.94531v0.94531h-0.47266c-0.47266 0.47266 0 1.4219-0.47266 1.8945 0 0.47266-0.94531 0.94531-0.94531 0.94531-0.47266 0.94531-0.47266 2.3672-0.94531 2.8398 0 0-0.47266 0-0.47266 0.47266 0 0.47266-0.47266 1.8945-0.94531 2.3672-0.47266 0.94531-0.47266 1.8945-0.94531 2.8398-0.94531 1.8945-1.4219 3.7891-2.3672 6.1562-0.47266 0.94531-0.47266 2.3672-0.94531 2.8398 0 0.47266-0.94531 0.94531-0.94531 0.94531-0.94531 1.8945-0.94531 5.6836-1.4219 8.5234 0 0-0.47266 0-0.47266 0.47266 0 1.4219-0.47266 1.8945-0.47266 4.2617v2.3672s-0.47266 0-0.47266 0.47266c0 4.2617-0.47266 9.4727-0.94531 13.734 0 1.4219-0.47266 3.3164-0.47266 5.2109 0 1.4219 0.47266 3.3164 0.47266 4.7344 0 1.4219-0.47266 2.3672-0.94531 4.2617-0.94531 5.2109-0.47266 11.367 0 18.469v3.3164c0 0.94531 0.47266 0.94531 0.47266 1.4219 0 0-0.47266 0-0.47266 0.47266v0.47266c0 0.94531-0.94531 1.8945-0.94531 2.3672-0.47266 3.7891 0.94531 5.2109 1.8945 8.5234 0.47266 1.8945 0.94531 4.2617 1.4219 6.1562 0 0 0.47266 0 0.47266 0.47266 0.47266 0.94531 0.94531 1.8945 0.94531 2.8398 0.47266 0.94531 0.94531 1.4219 0.94531 2.3672 0.47266 1.8945 0.94531 5.2109 1.4219 7.1055 0 0 0.47266 0 0.47266 0.47266 0 0.47266 0 0.94531 0.47266 1.4219 1.4219 2.3672 2.8398 6.1562 4.2617 8.9961 0 0 0.47266 0 0.47266 0.47266 0.47266 1.4219 0.94531 2.8398 1.4219 4.7344 0.47266 0.94531 1.4219 2.3672 1.4219 2.8398 0 0.47266 0.94531 0.94531 0.94531 1.4219 0 0.47266 0.94531 0.94531 0.94531 1.4219 0 0.47266 0.94531 1.4219 1.4219 1.8945l0.94531 0.47266c0.47266 0.47266 0.47266 1.4219 0.94531 1.8945 0.47266 0.47266 1.4219 0.47266 1.4219 0.94531 0.47266 0.47266 0 0.94531 0.47266 1.4219 0.94531 0.94531 2.3672 1.8945 3.3164 3.3164 0.47266 0.47266 1.4219 1.4219 1.8945 2.3672 0.47266 0.94531 1.8945 2.3672 2.8398 3.3164 0.94531 0.94531 2.8398 2.3672 4.2617 3.3164 0.47266 0.47266 0.47266 0.94531 0.94531 0.94531h0.94531l0.47266 0.94531c0.47266 0.47266 0.94531 0 1.4219 0.47266 0 0 0.47266 0.94531 0.47266 0.94531 0.47266 0.47266 1.4219 0.47266 1.8945 0.94531 0.94531 0.47266 1.4219 1.8945 1.8945 2.3672h0.94531c1.4219 1.8945 4.2617 4.7344 6.6289 6.1562 1.4219 0.94531 2.8398 0.94531 4.7344 1.4219 1.4219 0.47266 2.8398 1.4219 4.2617 1.8945 0.47266 0 0 0.47266 0.47266 0.47266s0.47266 0.94531 0.94531 0.94531c0.47266 0.47266 1.4219 0 2.3672 0.47266 1.4219 0.47266 2.8398 0.94531 4.7344 1.4219 2.8398 0.94531 5.6836 2.8398 8.0508 4.2617 5.2109 2.8398 10.891 4.2617 17.051 6.6289 4.2617 1.4219 8.5234 3.7891 13.262 4.7344 1.8945 0.47266 3.7891 0 5.6836 0.47266 1.4219 0.47266 3.3164 0.94531 5.2109 0.94531 0.94531 0 1.8945-0.47266 2.8398 0 0 0 0 0.47266 0.47266 0.47266 0.47266 0 0.94531 0.94531 1.4219 0.94531l0.94531 0.47266c0.47266 0 0.94531 0.47266 1.4219 0.47266 0.47266 0 0.94531 0.94531 0.94531 0.94531 0.47266 0.47266 0.94531 0 1.4219 0.47266 1.8945 1.4219 2.8398 3.7891 2.8398 5.6836 0 1.4219 0.47266 2.8398 0 4.7344 0 0-0.47266 0-0.47266 0.47266l-0.47266 1.4219-0.94531 0.47266v0.94531c0 0.47266-0.94531 0.94531-1.4219 1.4219-0.94531 0.94531-1.8945 2.3672-3.3164 3.3164l-0.47266 0.47266c-1.4219 0.47266-3.3164 0-5.2109 0.47266-2.4219 4.7695-4.3164 5.7148-5.2617 5.7148-3.7891 0-8.5234-1.4219-13.262-1.8945-1.8945-0.47266-3.3164-0.94531-5.2109-0.94531-1.4219 0-2.8398-0.47266-4.2617-0.94531-0.94531-0.94922-1.8906-0.94922-2.8398-1.4219-0.47266-0.47266-0.94531-0.47266-1.4219-0.47266-0.47266 0-0.47266-0.47266-0.47266-0.47266-0.94531-0.47266-1.8945 0-2.8398-0.47266 0 0 0-0.47266-0.47266-0.47266-0.94531-0.47266-1.4219-0.94531-2.3672-0.94531-0.94531-0.47266-1.4219-0.94531-2.3672-0.94531-0.94531-0.47266-1.4219 0-2.3672-0.47266-0.47266 0-0.94531-0.94531-0.94531-0.94531h-1.4219c-0.47266 0-0.94531-0.94531-0.94531-0.94531-1.4219-0.47266-1.4219 0-2.8398-0.47266 0 0 0-0.47266-0.47266-0.47266h-0.47266c-0.47266 0-0.94531-0.94531-0.94531-0.94531-2.3789-0.96484-2.8516-0.96484-3.3281-0.96484-1.4219-0.47266-3.3164-1.4219-5.6836-1.8945 0 0 0-0.47266-0.47266-0.47266-0.94531 0-1.4219 0-1.8945-0.47266-0.47266 0-0.94531-0.94531-0.94531-0.94531-0.94531-0.47266-2.8398-0.94531-4.2617-1.4219-0.47266-0.47266-0.47266-0.94531-0.94531-0.94531h-0.94531c-0.47266-0.47266-1.4219-0.94531-2.3672-1.4219-0.94531-0.47266-1.8945-0.47266-2.8398-0.94531-0.47266 0-0.94531-0.94531-0.94531-0.94531h-0.94531v-0.47266c-0.94531-0.47266-1.8945-0.47266-2.3672-0.94531-0.47266 0-0.94531-0.94531-0.94531-0.94531h-1.4219c-0.47266 0-0.94531-0.94531-0.94531-0.94531-0.94531-0.47266-1.8945-0.47266-2.8398-0.94531 0 0 0-0.47266-0.47266-0.47266-0.94531 0-1.4219-0.94531-2.3672-1.4219-0.47266-0.47266-1.4219-0.94531-1.8945-0.94531s-0.94531-0.94531-1.4219-1.4219h-0.94531l-0.47266-0.94531h-0.94531c-0.47266-0.47266-0.94531-1.4219-1.8945-1.8945-0.94531-0.47266-1.8945-1.8945-2.3672-2.3672h-0.94531c-0.47266-0.94531-1.8945-2.3672-2.8398-3.3164h-0.94531l-0.47266-0.94531h-0.94531c-0.47266-0.47266-0.94531-1.4219-1.8945-1.8945-1.4219-0.94531-2.3672-2.3672-4.2617-3.3164-0.94531-0.94531-2.8398-1.8945-4.2617-3.3164-0.94531-0.94531-2.3672-2.3672-2.8398-3.3164 0-0.47266-0.94531-1.4219-1.4219-1.8945-0.94531-0.94531-1.8945-1.8945-2.3672-2.3672-0.94531-0.94531-1.4219-1.8945-1.8945-2.8398-0.94531-0.94531-1.8945-1.4219-2.3672-2.3672-0.94531-0.94531-1.4219-1.8945-1.8945-2.8398-0.47266-0.94531-1.4219-1.8945-1.8945-2.3672-0.94531-1.8945-1.8945-4.7344-3.3164-7.1055-0.47266-0.47266-0.47266-0.94531-0.47266-1.4219 0-0.47266-0.47266-0.47266-0.47266-0.47266-0.47266-0.94531 0-1.4219-0.47266-1.8945 0-0.47266-0.94531-0.94531-0.94531-0.94531-0.47266-0.94531-0.47266-1.4219-0.47266-1.8945-0.47266-0.94531-0.47266-1.4219-0.94531-2.3672 0-0.47266-0.47266-0.94531-0.94531-1.8945-0.47266-1.4219-0.47266-2.3672-0.94531-3.3164 0-0.47266-0.94531-0.94531-0.94531-0.94531v-0.94531c-0.47266-1.8945-1.8945-5.2109-2.3672-7.5781-0.47266-1.4219 0-2.8398-0.47266-4.2617 0 0-0.47266 0-0.47266-0.47266v-0.47266c0-0.47266-0.47266-0.94531-0.47266-1.4219-0.47266-1.8945-1.8945-5.2109-2.3672-7.5781-0.47266-1.8945-0.94531-3.7891-1.4219-6.1562-0.47266-1.4219-0.47266-5.6836-0.47266-8.9961 0-2.3672-0.47266-5.2109-0.47266-7.5781 0-6.1562 0.94531-11.84 0.47266-18.469 0 0-1.4219-1.8945-0.47266-2.3672 1.4219-0.94531 0-4.7344 0-6.6289 0-0.94531 0.94531-2.3672 0.94531-3.3164v-1.8945c0.47266-1.8945 0.94531-6.1562 1.4219-8.9961 0.47266-4.2617 0.47266-7.5781 0.94531-11.84 0-0.94531 0.47266-2.8398 0.47266-3.3164 0 0 0.47266 0 0.47266-0.47266v-1.4219c0.47266-0.47266 0.47266-1.4219 0.94531-2.3672 0.47266-1.4219 0.94531-2.8398 1.4219-4.2617 0.47266-1.4219 0.94531-3.3164 1.4219-4.7344 0 0 0.47266 0 0.47266-0.47266 0-0.94531 0.94531-0.94531 0.94531-1.8945 0-0.47266 1.4219-2.8398 1.8945-4.2617v-0.94531c0.47266-0.47266 0.94531-2.3672 1.4219-3.3164 1.4219-1.8945 1.8945-6.6289 2.8398-8.9961 0-0.47266 0.47266 0 0.47266-0.47266s0.94531-0.47266 0.94531-0.94531v-0.94531h0.47266v-0.94531h0.47266v-0.94531h0.47266v-0.94531h0.47266c0.47266-0.94531 0.94531-1.8945 1.4219-2.8398 0-0.47266 0.47266 0 0.47266-0.47266v-0.47266c0.47266-0.47266 0.94531-0.94531 1.4219-1.4219 0.47266-0.47266 0.47266-1.4219 0.94531-1.8945 0.47266-0.47266 0.94531-0.94531 1.4219-1.4219 0.47266-0.47266 0.47266-1.4219 0.94531-1.8945s0.94531-0.94531 1.4219-1.4219c0.47266-0.47266 0.47266-1.4219 0.94531-1.8945 0.47266-0.47266 0.94531-0.94531 1.4219-1.4219v-0.94531c1.4219-0.94531 2.8398-2.3672 4.2617-4.2617 0.94531-0.94531 1.4219-1.8945 2.3672-2.8398 0.47266-0.47266 0.94531-0.94531 1.4219-1.4219 0.94531-0.94531 1.4219-2.3672 2.3672-3.3164 1.8945-2.3672 3.7891-4.2617 5.6836-6.1562 0.47266-0.47266 0.94531-0.94531 1.4219-1.4219 0.47266-0.47266 1.4219-0.47266 1.8945-0.94531 0.94531-0.47266 1.8945-2.3672 2.8398-2.8398 0.94531-0.94531 2.3672-1.8945 3.3164-2.3672 0.94531-0.47266 1.4219-1.4219 2.3672-1.8945 0.47266-0.47266 1.8945-0.94531 2.3672-1.4219 0.47266-0.47266 0.94531-1.4219 1.4219-1.4219h0.94531v-0.47266h0.94531v-0.47266c0.94531-0.47266 1.8945-0.94531 2.8398-1.4219 0.47266 0 0-0.47266 0.47266-0.47266h0.47266c0.47266-0.47266 0.94531-0.94531 1.4219-1.4219h0.94531c0.47266-0.47266 0.47266-0.47266 0.94531-0.94531 0.47266-0.47266 0.94531-0.94531 1.4219-1.4219 0.47266-0.47266 1.4219-0.47266 1.8945-0.94531 0.47266 0 0-0.47266 0.47266-0.47266 0.94531 0 1.4219-0.94531 1.8945-1.4219h0.94531v-0.47266h0.94531v-0.47266h0.94531v-0.47266h0.94531v-0.47266h0.94531v-0.47266h0.94531v-0.47266h0.94531c0.94531-0.94531 4.2617-2.3672 6.1562-2.8398h0.94531v-0.47266h0.94531c0.47266-0.47266 2.8398-1.4219 4.7344-1.8945 1.4219-0.47266 3.3164-0.94531 4.7344-1.4219 0.94531-0.47266 2.3672-0.47266 3.3164-0.94531 1.4219-0.47266 5.2109-1.4219 8.0508-1.8945 0.94531 0 1.4219-0.47266 2.3672-0.47266 0 0 0-0.47266 0.47266-0.47266h1.4219c0.47266-0.47266 1.4219 0 2.8398-0.47266 0 0 0-0.47266 0.47266-0.47266h1.8945s0-0.47266 0.47266-0.47266h1.4219c2.3672-0.47266 8.0508-0.94531 11.84-0.47266 0 0 0 0.47266 0.47266 0.47266 1.4219 0 4.2617 0 6.1562 0.47266h1.4219c1.4219 0.47266 5.6836 0.47266 7.5781 0.94531 0.94531 0.47266 0.94531 0 1.4219 0.47266 0.94531 0.94531 7.5781 0 9.9453 0 1.4219 0 3.3164 0.94531 5.2109 0.94531 1.4219 0.47266 3.3164 0 5.2109 0.47266 0 0 0 0.47266 0.47266 0.47266h1.8945s0 0.47266 0.47266 0.47266h1.4219v0.47266c0.94531 0 1.8945 0.47266 2.3672 0.47266 2.3672 0.47266 6.1562 1.4219 9.4727 1.8945 1.4219 0.47266 2.8398 0.47266 5.2109 0.47266 0.94531 0 1.4219 0.47266 1.8945 0.47266 2.3672 0.47266 4.7344 0.47266 6.6289 0.94531 0 0 0 0.47266 0.47266 0.47266 1.4219 0 3.7891 0.94531 5.2109 1.4219 0.94531 0.47266 1.8945 0 2.3672 0.47266 0 0 0 0.47266 0.47266 0.47266 1.4219 0 2.3672 0.94531 3.3164 1.4219h0.94531v0.47266h0.94531v0.47266c0.94531 0.47266 2.8398 0.47266 3.3164 0.94531l0.47266 0.94531h0.94531v0.47266h0.94531v0.47266h0.94531v0.47266h0.94531v0.47266h0.94531v0.47266h0.94531c0.47266 0.94531 1.8945 0.94531 3.3164 1.4219h0.94531c0.47266 0.47266 1.4219 0.47266 2.3672 0.94531 0 0 0 0.47266 0.47266 0.47266 0.94531 0 0.94531 0.94531 1.8945 0.94531 0.94531 0 0.94531 0.94531 1.8945 0.94531 0.47266 0 0.47266 0.94531 0.94531 0.94531h0.94531v0.47266h0.94531c0.47266 0.47266 0.47266 1.4219 1.4219 1.4219h0.47266c0.47266 0.47266 0.94531 0.94531 1.4219 1.4219 0.94531 0.47266 1.8945 0.94531 2.8398 1.4219 0.47266 0 0 0.47266 0.47266 0.47266 0.47266 0 0.47266 0.94531 0.94531 0.94531 0.94531 0.47266 1.4219 0.47266 2.3672 1.4219 0.47266 0.47266 0.94531 0.94531 1.4219 1.4219 0.94531 0.94531 1.8945 2.3672 2.8398 2.8398h0.94531c0.47266 0.94531 1.4219 1.4219 2.3672 2.3672 1.4219 1.4219 2.8398 2.3672 4.2617 4.2617 0.47266 0.47266 1.4219 0.94531 1.8945 1.8945 0.47266 0.47266 0 0.94531 0.47266 1.4219 0.47266 0.94531 1.4219 1.4219 1.8945 1.8945 0.47266 0.47266 0.94531 0.47266 0.94531 0.94531 0.47266 0.47266 0.94531 1.8945 1.4219 2.8398 0.47266 0.94531 0.94531 1.4219 1.4219 2.3672 0.47266 0.47266 0.94531 0.94531 0.94531 0.94531 0.94531 1.8945 1.8945 3.3164 2.8398 5.2109 0 0.47266 0.47266 0 0.47266 0.47266l0.47266 0.94531c0 0.47266 0.94531 0.47266 0.94531 0.94531 0.47266 0.47266 0 0.94531 0.47266 1.4219 0 0.47266 0.94531 0.94531 0.94531 0.94531 0.94531 1.8945 1.4219 3.7891 2.3672 5.6836 0 0.47266 0 0.94531 0.47266 1.4219 0 0.47266 0.94531 0.94531 0.94531 0.94531 0.47266 0.47266 0 0.94531 0.47266 1.4219 0 0.47266 0.94531 0.94531 0.94531 0.94531v0.94531c0 0.47266 0.47266 0.94531 0.94531 1.8945 0 0.47266 0.47266 0.94531 0.47266 1.4219 0 0.47266 0.94531 0.94531 0.94531 0.94531 0.47266 0.94531 0.47266 2.3672 0.47266 2.8398 0 0 0.47266 0 0.47266 0.47266 0.47266 1.8945 1.4219 4.2617 1.8945 7.1055 0.94531 2.3672 1.4219 4.7344 1.8945 8.0508 0.47266 2.8398 0.94531 8.0508 0.47266 12.785v1.4219c-0.47266 2.8398-0.94531 8.9961-1.4219 12.785 0 0.94531 0 1.8945-0.47266 2.3672 0 0.47266-0.47266 0-0.47266 0.47266 0 0.94531-1.4219 2.8398-1.8945 4.7344-0.47266 1.4219-0.94531 2.8398-0.94531 4.2617-0.47266 1.4219 0 2.3672-0.47266 4.2617 0 0.47266-0.47266 0.47266-0.47266 0.94531 0 0.94531 0 2.3672-0.47266 2.8398 0 0-0.47266 0-0.47266 0.47266 0 1.4219-1.8945 3.7891-2.3672 5.6836-0.47266 0.94531 0 1.4219-0.47266 1.8945 0 0.47266-0.94531 0.94531-0.94531 0.94531-0.47266 1.4219-0.94531 3.3164-1.4219 5.2109 0 0-0.47266 0-0.47266 0.47266-0.47266 0.94531-0.47266 1.4219-0.94531 2.3672 0 0.47266-0.47266 0.94531-0.47266 1.4219-0.94531 1.8945-1.8945 3.7891-2.8398 5.6836-0.94531 1.8945-1.8945 4.2617-2.8398 6.1562 0 0.47266-0.47266 0-0.47266 0.47266 0 0-0.47266 0.94531-0.47266 0.94531 0 0.47266-0.94531 0.47266-0.94531 0.94531-0.47266 0.94531-0.94531 1.8945-1.4219 2.3672-1.4219 1.8945-2.3672 3.7891-3.3164 5.6836-0.47266 0.94531-0.94531 1.8945-1.4219 2.8398 0 0.47266-0.94531 0.47266-0.94531 0.94531s0 0.94531-0.47266 1.4219c-0.47266 0.47266-1.4219 0.47266-1.4219 0.94531-0.47266 0.47266 0 0.94531-0.47266 1.4219l-0.94531 0.47266c-0.47266 0.47266-0.47266 1.4219-0.94531 1.8945-0.47266 0.47266-1.4219 0.47266-1.4219 0.94531-0.47266 0.47266 0 0.94531-0.47266 1.4219-0.47266 0.47266-1.4219 0.47266-1.4219 0.94531-0.47266 0.47266 0 0.94531-0.47266 1.4219l-4.7344 4.7344c-0.94531 0.94531-1.4219 1.8945-1.8945 2.3672-0.47266 0.47266-0.94531 0-1.4219 0.47266-0.47266 0.47266-0.47266 0.94531-0.94531 0.94531-2.3672 1.8945-4.2617 4.2617-7.1055 6.6289-0.94531 0.94531-1.8945 1.8945-2.8398 2.3672-0.47266 0-0.47266 0.47266-0.47266 0.47266-0.47266 0-0.94531 0-1.4219 0.47266l-0.47266 0.94531c-0.47266 0.47266-0.94531 0.47266-1.8945 0.94531-0.47266 0.47266-0.94531 0.47266-1.4219 0.94531-0.94531 0.47266-1.4219 0.94531-2.3672 1.4219-0.94531 0.47266-1.4219 0.94531-3.3164 1.4219-0.94531 0.47266-1.8945 0-2.3672 0.47266 0 0 0 0.47266-0.47266 0.47266-1.4219 0-2.3672 0.94531-3.3164 1.4219-8.5234 3.3164-18.941 5.6836-29.836 6.6289-1.8945 0-3.7891 0.47266-5.6836 0.47266-1.4219 0-2.3672-0.94531-4.2617-0.47266-0.47266 0-0.47266 0.47266-0.94531 0.47266-0.94531 0-8.0508-0.94531-8.5234 0-0.47266 0.47266-0.94531 0-2.3672 0-7.5781-0.47266-14.68-0.94531-21.785-2.3672-1.4219-0.47266-3.3164-0.47266-5.2109-0.94531-1.4219-0.47266-3.3164-0.47266-5.2109-0.94531 0 0 0-0.47266-0.47266-0.47266-0.94531 0-0.94531-0.47266-1.4219-0.47266-0.94531-0.47266-1.8945-0.47266-2.3672-0.47266-0.94531-0.47266-1.8945-0.47266-2.3672-0.47266 0 0 0-0.47266-0.47266-0.47266h-1.4219v-0.47266c-1.8945-0.47266-3.3164-0.47266-5.2109-0.94531 0 0 0-0.47266-0.47266-0.47266-0.94531 0-2.3672-0.94531-3.3164-1.4219-1.8945-0.94531-3.3164-1.4219-5.2109-2.3672-0.47266 0 0-0.47266-0.47266-0.47266-0.94531 0-0.94531-0.94531-1.8945-0.94531-0.47266 0-0.47266-0.94531-0.94531-0.94531h-0.94531v-0.47266h-0.94531v-0.47266h-0.94531v-0.47266h-0.94531v-0.47266h-0.94531v-0.47266h-0.94531c-0.47266-0.47266-0.47266-0.47266-0.94531-0.94531-0.47266-0.47266-1.4219-0.47266-1.8945-0.94531s-0.94531-0.94531-1.4219-1.4219c-0.47266-0.47266-1.4219-0.47266-1.8945-0.94531-0.47266-0.47266-0.94531-0.94531-1.4219-1.4219h-0.94531c-0.47266-0.94531-0.94531-0.94531-1.8945-1.4219-0.47266 0 0-0.47266-0.47266-0.47266h-0.47266c-0.47266-0.47266-0.94531-0.94531-1.4219-1.4219-0.47266-0.47266-0.94531-0.94531-1.4219-0.94531-0.47266 0-2.8398-2.3672-3.3164-2.8398-0.94531-0.94531-2.3672-1.4219-2.8398-2.3672-0.47266-0.47266-0.94531-0.94531-0.94531-0.94531v-0.94531c-0.47266-0.47266-1.4219-0.47266-1.4219-1.4219 0-0.94531-1.4219-0.94531-1.4219-1.8945 0-0.47266-0.94531-1.4219-1.4219-1.8945-0.47266-0.47266 0-0.94531-0.47266-1.4219 0-0.47266-0.94531-0.47266-0.94531-0.47266v-0.94531c-2.3672-1.8945-3.3164-6.6289-5.2109-9.9453-0.47266-0.47266-0.94531-0.47266-0.94531-0.94531v-0.94531h-0.47266v-0.94531h-0.47266v-0.94531c-1.4219-1.4219-2.8398-3.3164-4.2617-6.1562v-0.94531h-0.47266v-0.94531c-0.47266-0.47266-0.94531-2.8398-1.4219-4.2617v-0.94531c-0.94531-0.94531-1.4219-6.1562-1.4219-8.5234 0-1.4219-0.47266-2.8398-0.47266-4.7344-0.47266-4.2617 0-8.9961 0.47266-13.734 0.47266-5.2109 0.47266-9.9453 1.8945-14.207v-0.94531c0.94531-0.47266 1.4219-4.2617 1.8945-6.1562 0.47266-1.8945 1.4219-3.7891 1.8945-5.6836 0 0 0.47266 0 0.47266-0.47266 0-0.94531 0.47266-0.94531 0.47266-1.8945 0.48047-8.0781 0.48047-9.0234 1.4297-9.4961z" fill-rule="evenodd"/>
</svg>
